<svg xmlns="http://www.w3.org/2000/svg" viewBox="0 0 960 540" width="960" height="540">
<rect x="0" y="0" width="960" height="540" fill="#0d1117" rx="14"/>
<rect x="0" y="0" width="960" height="540" fill="#161b22" rx="14" stroke="#30363d" stroke-width="1"/>
<text x="40" y="52" fill="#f0f6fc" font-size="22" font-family="sans-serif" font-weight="bold">Continental Distribution of the Eleven Structural Types</text>
<text x="40" y="78" fill="#8b949e" font-size="11" font-family="sans-serif">Each filled cell indicates presence of that structural type on that continent. Tiers: O</text>
<text x="758" y="78" fill="#f77f00" font-size="13" font-family="sans-serif" font-weight="bold">O</text>
<text x="772" y="74" fill="#f77f00" font-size="9" font-family="sans-serif">1</text>
<text x="786" y="78" fill="#8b949e" font-size="11" font-family="sans-serif"> / </text>
<text x="802" y="78" fill="#e94560" font-size="13" font-family="sans-serif" font-weight="bold">O</text>
<text x="816" y="74" fill="#e94560" font-size="9" font-family="sans-serif">2</text>
<text x="830" y="78" fill="#8b949e" font-size="11" font-family="sans-serif"> / </text>
<text x="846" y="78" fill="#9b59b6" font-size="13" font-family="sans-serif" font-weight="bold">O</text>
<text x="860" y="74" fill="#9b59b6" font-size="9" font-family="sans-serif">2</text>
<text x="874" y="78" fill="#9b59b6" font-size="13" font-family="sans-serif" font-weight="bold">&#8224;</text>
<line x1="40" y1="98" x2="920" y2="98" stroke="#d4a017" stroke-width="0.5"/>

<g font-family="sans-serif">
<text x="270" y="125" fill="#e94560" font-size="12" font-weight="bold" text-anchor="middle">Europe</text>
<text x="410" y="125" fill="#f77f00" font-size="12" font-weight="bold" text-anchor="middle">Asia</text>
<text x="550" y="125" fill="#06d6a0" font-size="12" font-weight="bold" text-anchor="middle">Africa</text>
<text x="690" y="125" fill="#9b59b6" font-size="12" font-weight="bold" text-anchor="middle">Americas</text>
<text x="830" y="125" fill="#a2d6f9" font-size="12" font-weight="bold" text-anchor="middle">Oceania</text>
</g>

<g>
<rect x="40" y="142" width="210" height="36" fill="#21262d" rx="4"/>
<circle cx="54" cy="160" r="5" fill="#e94560"/>
<text x="66" y="165" fill="#f0f6fc" font-size="12" font-family="sans-serif">I: Aromatic Baseline</text>
<rect x="270" y="142" width="120" height="36" fill="#e9456022" rx="4"/><rect x="273" y="145" width="114" height="30" fill="#e9456055" rx="4"/><text x="330" y="166" fill="#e94560" font-size="18" font-family="sans-serif" text-anchor="middle" font-weight="bold">&#9679;</text>
<rect x="410" y="142" width="120" height="36" fill="#f77f0022" rx="4"/><rect x="413" y="145" width="114" height="30" fill="#f77f0055" rx="4"/><text x="470" y="166" fill="#f77f00" font-size="18" font-family="sans-serif" text-anchor="middle" font-weight="bold">&#9679;</text>
<rect x="550" y="142" width="120" height="36" fill="#06d6a022" rx="4"/><rect x="553" y="145" width="114" height="30" fill="#06d6a055" rx="4"/><text x="610" y="166" fill="#06d6a0" font-size="18" font-family="sans-serif" text-anchor="middle" font-weight="bold">&#9679;</text>
<rect x="690" y="142" width="120" height="36" fill="#9b59b622" rx="4"/><rect x="693" y="145" width="114" height="30" fill="#9b59b655" rx="4"/><text x="750" y="166" fill="#9b59b6" font-size="18" font-family="sans-serif" text-anchor="middle" font-weight="bold">&#9679;</text>
<rect x="830" y="142" width="120" height="36" fill="#a2d6f922" rx="4"/><rect x="833" y="145" width="114" height="30" fill="#a2d6f955" rx="4"/><text x="890" y="166" fill="#a2d6f9" font-size="18" font-family="sans-serif" text-anchor="middle" font-weight="bold">&#9679;</text>
</g>

<g>
<rect x="40" y="180" width="210" height="36" fill="#21262d" rx="4"/>
<circle cx="54" cy="198" r="5" fill="#e94560"/>
<text x="66" y="203" fill="#f0f6fc" font-size="12" font-family="sans-serif">II: Tropane</text>
<rect x="270" y="180" width="120" height="36" fill="#e9456022" rx="4"/><rect x="273" y="183" width="114" height="30" fill="#e9456055" rx="4"/><text x="330" y="204" fill="#e94560" font-size="18" font-family="sans-serif" text-anchor="middle" font-weight="bold">&#9679;</text>
<rect x="410" y="180" width="120" height="36" fill="#30363d33" rx="4"/><text x="470" y="204" fill="#8b949e" font-size="14" font-family="sans-serif" text-anchor="middle">&#183;</text>
<rect x="550" y="180" width="120" height="36" fill="#06d6a022" rx="4"/><rect x="553" y="183" width="114" height="30" fill="#06d6a055" rx="4"/><text x="610" y="204" fill="#06d6a0" font-size="18" font-family="sans-serif" text-anchor="middle" font-weight="bold">&#9679;</text>
<rect x="690" y="180" width="120" height="36" fill="#30363d33" rx="4"/><text x="750" y="204" fill="#8b949e" font-size="14" font-family="sans-serif" text-anchor="middle">&#183;</text>
<rect x="830" y="180" width="120" height="36" fill="#30363d33" rx="4"/><text x="890" y="204" fill="#8b949e" font-size="14" font-family="sans-serif" text-anchor="middle">&#183;</text>
</g>

<g>
<rect x="40" y="218" width="210" height="36" fill="#21262d" rx="4"/>
<circle cx="54" cy="236" r="5" fill="#e94560"/>
<text x="66" y="241" fill="#f0f6fc" font-size="12" font-family="sans-serif">III: Cardiac Glycoside</text>
<rect x="270" y="218" width="120" height="36" fill="#e9456022" rx="4"/><rect x="273" y="221" width="114" height="30" fill="#e9456055" rx="4"/><text x="330" y="242" fill="#e94560" font-size="18" font-family="sans-serif" text-anchor="middle" font-weight="bold">&#9679;</text>
<rect x="410" y="218" width="120" height="36" fill="#30363d33" rx="4"/><text x="470" y="242" fill="#8b949e" font-size="14" font-family="sans-serif" text-anchor="middle">&#183;</text>
<rect x="550" y="218" width="120" height="36" fill="#30363d33" rx="4"/><text x="610" y="242" fill="#8b949e" font-size="14" font-family="sans-serif" text-anchor="middle">&#183;</text>
<rect x="690" y="218" width="120" height="36" fill="#30363d33" rx="4"/><text x="750" y="242" fill="#8b949e" font-size="14" font-family="sans-serif" text-anchor="middle">&#183;</text>
<rect x="830" y="218" width="120" height="36" fill="#30363d33" rx="4"/><text x="890" y="242" fill="#8b949e" font-size="14" font-family="sans-serif" text-anchor="middle">&#183;</text>
</g>

<g>
<rect x="40" y="256" width="210" height="36" fill="#21262d" rx="4"/>
<circle cx="54" cy="274" r="5" fill="#f77f00"/>
<text x="66" y="279" fill="#f0f6fc" font-size="12" font-family="sans-serif">IV: Non-Critical Aromatic</text>
<rect x="270" y="256" width="120" height="36" fill="#e9456022" rx="4"/><rect x="273" y="259" width="114" height="30" fill="#e9456055" rx="4"/><text x="330" y="280" fill="#e94560" font-size="18" font-family="sans-serif" text-anchor="middle" font-weight="bold">&#9679;</text>
<rect x="410" y="256" width="120" height="36" fill="#f77f0022" rx="4"/><rect x="413" y="259" width="114" height="30" fill="#f77f0055" rx="4"/><text x="470" y="280" fill="#f77f00" font-size="18" font-family="sans-serif" text-anchor="middle" font-weight="bold">&#9679;</text>
<rect x="550" y="256" width="120" height="36" fill="#06d6a022" rx="4"/><rect x="553" y="259" width="114" height="30" fill="#06d6a055" rx="4"/><text x="610" y="280" fill="#06d6a0" font-size="18" font-family="sans-serif" text-anchor="middle" font-weight="bold">&#9679;</text>
<rect x="690" y="256" width="120" height="36" fill="#9b59b622" rx="4"/><rect x="693" y="259" width="114" height="30" fill="#9b59b655" rx="4"/><text x="750" y="280" fill="#9b59b6" font-size="18" font-family="sans-serif" text-anchor="middle" font-weight="bold">&#9679;</text>
<rect x="830" y="256" width="120" height="36" fill="#30363d33" rx="4"/><text x="890" y="280" fill="#8b949e" font-size="14" font-family="sans-serif" text-anchor="middle">&#183;</text>
</g>

<g>
<rect x="40" y="294" width="210" height="36" fill="#21262d" rx="4"/>
<circle cx="54" cy="312" r="5" fill="#9b59b6"/>
<text x="66" y="317" fill="#f0f6fc" font-size="12" font-family="sans-serif">V: Axiom A / Eternal</text>
<rect x="270" y="294" width="120" height="36" fill="#e9456022" rx="4"/><rect x="273" y="297" width="114" height="30" fill="#e9456055" rx="4"/><text x="330" y="318" fill="#e94560" font-size="18" font-family="sans-serif" text-anchor="middle" font-weight="bold">&#9679;</text>
<rect x="410" y="294" width="120" height="36" fill="#30363d33" rx="4"/><text x="470" y="318" fill="#8b949e" font-size="14" font-family="sans-serif" text-anchor="middle">&#183;</text>
<rect x="550" y="294" width="120" height="36" fill="#30363d33" rx="4"/><text x="610" y="318" fill="#8b949e" font-size="14" font-family="sans-serif" text-anchor="middle">&#183;</text>
<rect x="690" y="294" width="120" height="36" fill="#9b59b622" rx="4"/><rect x="693" y="297" width="114" height="30" fill="#9b59b655" rx="4"/><text x="750" y="318" fill="#9b59b6" font-size="18" font-family="sans-serif" text-anchor="middle" font-weight="bold">&#9679;</text>
<rect x="830" y="294" width="120" height="36" fill="#30363d33" rx="4"/><text x="890" y="318" fill="#8b949e" font-size="14" font-family="sans-serif" text-anchor="middle">&#183;</text>
</g>

<g>
<rect x="40" y="332" width="210" height="36" fill="#21262d" rx="4"/>
<circle cx="54" cy="350" r="5" fill="#e94560"/>
<text x="66" y="355" fill="#f0f6fc" font-size="12" font-family="sans-serif">VI: Adaptogen</text>
<rect x="270" y="332" width="120" height="36" fill="#30363d33" rx="4"/><text x="330" y="356" fill="#8b949e" font-size="14" font-family="sans-serif" text-anchor="middle">&#183;</text>
<rect x="410" y="332" width="120" height="36" fill="#f77f0022" rx="4"/><rect x="413" y="335" width="114" height="30" fill="#f77f0055" rx="4"/><text x="470" y="356" fill="#f77f00" font-size="18" font-family="sans-serif" text-anchor="middle" font-weight="bold">&#9679;</text>
<rect x="550" y="332" width="120" height="36" fill="#06d6a022" rx="4"/><rect x="553" y="335" width="114" height="30" fill="#06d6a055" rx="4"/><text x="610" y="356" fill="#06d6a0" font-size="18" font-family="sans-serif" text-anchor="middle" font-weight="bold">&#9679;</text>
<rect x="690" y="332" width="120" height="36" fill="#9b59b622" rx="4"/><rect x="693" y="335" width="114" height="30" fill="#9b59b655" rx="4"/><text x="750" y="356" fill="#9b59b6" font-size="18" font-family="sans-serif" text-anchor="middle" font-weight="bold">&#9679;</text>
<rect x="830" y="332" width="120" height="36" fill="#30363d33" rx="4"/><text x="890" y="356" fill="#8b949e" font-size="14" font-family="sans-serif" text-anchor="middle">&#183;</text>
</g>

<g>
<rect x="40" y="370" width="210" height="36" fill="#21262d" rx="4"/>
<circle cx="54" cy="388" r="5" fill="#9b59b6"/>
<text x="66" y="393" fill="#f0f6fc" font-size="12" font-family="sans-serif">VII: Beta-Carboline</text>
<rect x="270" y="370" width="120" height="36" fill="#30363d33" rx="4"/><text x="330" y="394" fill="#8b949e" font-size="14" font-family="sans-serif" text-anchor="middle">&#183;</text>
<rect x="410" y="370" width="120" height="36" fill="#f77f0022" rx="4"/><rect x="413" y="373" width="114" height="30" fill="#f77f0055" rx="4"/><text x="470" y="394" fill="#f77f00" font-size="18" font-family="sans-serif" text-anchor="middle" font-weight="bold">&#9679;</text>
<rect x="550" y="370" width="120" height="36" fill="#06d6a022" rx="4"/><rect x="553" y="373" width="114" height="30" fill="#06d6a055" rx="4"/><text x="610" y="394" fill="#06d6a0" font-size="18" font-family="sans-serif" text-anchor="middle" font-weight="bold">&#9679;</text>
<rect x="690" y="370" width="120" height="36" fill="#9b59b622" rx="4"/><rect x="693" y="373" width="114" height="30" fill="#9b59b655" rx="4"/><text x="750" y="394" fill="#9b59b6" font-size="18" font-family="sans-serif" text-anchor="middle" font-weight="bold">&#9679;</text>
<rect x="830" y="370" width="120" height="36" fill="#30363d33" rx="4"/><text x="890" y="394" fill="#8b949e" font-size="14" font-family="sans-serif" text-anchor="middle">&#183;</text>
</g>

<g>
<rect x="40" y="408" width="210" height="36" fill="#21262d" rx="4"/>
<circle cx="54" cy="426" r="5" fill="#f77f00"/>
<text x="66" y="431" fill="#f0f6fc" font-size="12" font-family="sans-serif">VIII: Caffeine-Purine</text>
<rect x="270" y="408" width="120" height="36" fill="#30363d33" rx="4"/><text x="330" y="432" fill="#8b949e" font-size="14" font-family="sans-serif" text-anchor="middle">&#183;</text>
<rect x="410" y="408" width="120" height="36" fill="#f77f0022" rx="4"/><rect x="413" y="411" width="114" height="30" fill="#f77f0055" rx="4"/><text x="470" y="432" fill="#f77f00" font-size="18" font-family="sans-serif" text-anchor="middle" font-weight="bold">&#9679;</text>
<rect x="550" y="408" width="120" height="36" fill="#06d6a022" rx="4"/><rect x="553" y="411" width="114" height="30" fill="#06d6a055" rx="4"/><text x="610" y="432" fill="#06d6a0" font-size="18" font-family="sans-serif" text-anchor="middle" font-weight="bold">&#9679;</text>
<rect x="690" y="408" width="120" height="36" fill="#9b59b622" rx="4"/><rect x="693" y="411" width="114" height="30" fill="#9b59b655" rx="4"/><text x="750" y="432" fill="#9b59b6" font-size="18" font-family="sans-serif" text-anchor="middle" font-weight="bold">&#9679;</text>
<rect x="830" y="408" width="120" height="36" fill="#30363d33" rx="4"/><text x="890" y="432" fill="#8b949e" font-size="14" font-family="sans-serif" text-anchor="middle">&#183;</text>
</g>

<g>
<rect x="40" y="446" width="210" height="36" fill="#21262d" rx="4"/>
<circle cx="54" cy="464" r="5" fill="#e94560"/>
<text x="66" y="469" fill="#f0f6fc" font-size="12" font-family="sans-serif">IX: Opioid Alkaloid</text>
<rect x="270" y="446" width="120" height="36" fill="#e9456022" rx="4"/><rect x="273" y="449" width="114" height="30" fill="#e9456055" rx="4"/><text x="330" y="470" fill="#e94560" font-size="18" font-family="sans-serif" text-anchor="middle" font-weight="bold">&#9679;</text>
<rect x="410" y="446" width="120" height="36" fill="#f77f0022" rx="4"/><rect x="413" y="449" width="114" height="30" fill="#f77f0055" rx="4"/><text x="470" y="470" fill="#f77f00" font-size="18" font-family="sans-serif" text-anchor="middle" font-weight="bold">&#9679;</text>
<rect x="550" y="446" width="120" height="36" fill="#06d6a022" rx="4"/><rect x="553" y="449" width="114" height="30" fill="#06d6a055" rx="4"/><text x="610" y="470" fill="#06d6a0" font-size="18" font-family="sans-serif" text-anchor="middle" font-weight="bold">&#9679;</text>
<rect x="690" y="446" width="120" height="36" fill="#9b59b622" rx="4"/><rect x="693" y="449" width="114" height="30" fill="#9b59b655" rx="4"/><text x="750" y="470" fill="#9b59b6" font-size="18" font-family="sans-serif" text-anchor="middle" font-weight="bold">&#9679;</text>
<rect x="830" y="446" width="120" height="36" fill="#30363d33" rx="4"/><text x="890" y="470" fill="#8b949e" font-size="14" font-family="sans-serif" text-anchor="middle">&#183;</text>
</g>

<g>
<rect x="40" y="484" width="210" height="36" fill="#21262d" rx="4"/>
<circle cx="54" cy="502" r="5" fill="#e94560"/>
<text x="66" y="507" fill="#f0f6fc" font-size="12" font-family="sans-serif">X: Triterpene Saponin</text>
<rect x="270" y="484" width="120" height="36" fill="#30363d33" rx="4"/><text x="330" y="508" fill="#8b949e" font-size="14" font-family="sans-serif" text-anchor="middle">&#183;</text>
<rect x="410" y="484" width="120" height="36" fill="#f77f0022" rx="4"/><rect x="413" y="487" width="114" height="30" fill="#f77f0055" rx="4"/><text x="470" y="508" fill="#f77f00" font-size="18" font-family="sans-serif" text-anchor="middle" font-weight="bold">&#9679;</text>
<rect x="550" y="484" width="120" height="36" fill="#30363d33" rx="4"/><text x="610" y="508" fill="#8b949e" font-size="14" font-family="sans-serif" text-anchor="middle">&#183;</text>
<rect x="690" y="484" width="120" height="36" fill="#30363d33" rx="4"/><text x="750" y="508" fill="#8b949e" font-size="14" font-family="sans-serif" text-anchor="middle">&#183;</text>
<rect x="830" y="484" width="120" height="36" fill="#30363d33" rx="4"/><text x="890" y="508" fill="#8b949e" font-size="14" font-family="sans-serif" text-anchor="middle">&#183;</text>
</g>

<g>
<rect x="40" y="522" width="210" height="36" fill="#21262d" rx="4"/>
<circle cx="54" cy="540" r="5" fill="#9b59b6"/>
<text x="66" y="545" fill="#f0f6fc" font-size="12" font-family="sans-serif">XI: Fungal Interface</text>
<rect x="270" y="522" width="120" height="36" fill="#30363d33" rx="4"/><text x="330" y="546" fill="#8b949e" font-size="14" font-family="sans-serif" text-anchor="middle">&#183;</text>
<rect x="410" y="522" width="120" height="36" fill="#f77f0022" rx="4"/><rect x="413" y="525" width="114" height="30" fill="#f77f0055" rx="4"/><text x="470" y="546" fill="#f77f00" font-size="18" font-family="sans-serif" text-anchor="middle" font-weight="bold">&#9679;</text>
<rect x="550" y="522" width="120" height="36" fill="#30363d33" rx="4"/><text x="610" y="546" fill="#8b949e" font-size="14" font-family="sans-serif" text-anchor="middle">&#183;</text>
<rect x="690" y="522" width="120" height="36" fill="#30363d33" rx="4"/><text x="750" y="546" fill="#8b949e" font-size="14" font-family="sans-serif" text-anchor="middle">&#183;</text>
<rect x="830" y="522" width="120" height="36" fill="#30363d33" rx="4"/><text x="890" y="546" fill="#8b949e" font-size="14" font-family="sans-serif" text-anchor="middle">&#183;</text>
</g>

<g>
<line x1="40" y1="574" x2="920" y2="574" stroke="#30363d" stroke-width="0.5"/>
<text x="40" y="596" fill="#8b949e" font-size="10" font-family="sans-serif">Tier key: </text>
<circle cx="120" cy="592" r="5" fill="#f77f00"/>
<text x="132" y="597" fill="#f0f6fc" font-size="11" font-family="sans-serif">O</text>
<text x="146" y="593" fill="#f0f6fc" font-size="8" font-family="sans-serif">1</text>
<circle cx="175" cy="592" r="5" fill="#e94560"/>
<text x="187" y="597" fill="#f0f6fc" font-size="11" font-family="sans-serif">O</text>
<text x="201" y="593" fill="#f0f6fc" font-size="8" font-family="sans-serif">2</text>
<circle cx="230" cy="592" r="5" fill="#9b59b6"/>
<text x="242" y="597" fill="#f0f6fc" font-size="11" font-family="sans-serif">O</text>
<text x="256" y="593" fill="#f0f6fc" font-size="8" font-family="sans-serif">2</text>
<text x="264" y="597" fill="#9b59b6" font-size="13" font-family="sans-serif" font-weight="bold">&#8224;</text>
</g>

<text x="40" y="626" fill="#8b949e" font-size="9" font-family="sans-serif">Ars Phytoglyphica &mdash; Expanded Edition. Author: Lando&#x2297;&#x2299;perator. 11 types &times; 5 continents = 55 structural presence checks.</text>
</svg>
