<svg xmlns="http://www.w3.org/2000/svg" viewBox="0 0 360 420" width="360" height="420">
<rect x="0" y="0" width="360" height="420" fill="#0d1117" rx="14"/>
<rect x="0" y="0" width="360" height="420" fill="#161b22" rx="14" stroke="#30363d" stroke-width="1"/>
<rect x="14" y="14" width="332" height="6" fill="#9b59b6" rx="3"/>
<rect x="274" y="22" width="64" height="26" fill="#9b59b6" rx="13"/>
<text x="306" y="40" fill="#0d1117" font-size="13" font-family="sans-serif" font-weight="bold" text-anchor="middle">O₂†</text>
<text x="28" y="42" fill="#d4a017" font-size="11" font-family="sans-serif" font-weight="bold">Type VII</text>
<text x="28" y="72" fill="#f0f6fc" font-size="20" font-family="sans-serif" font-weight="bold">Beta-Carboline</text>
<text x="28" y="94" fill="#8b949e" font-size="10" font-family="sans-serif">Ayahuasca</text>
<line x1="28" y1="110" x2="332" y2="110" stroke="#d4a017" stroke-width="0.5"/>
<text x="32" y="144" fill="#f77f00" font-size="14" font-family="sans-serif" font-weight="bold">C</text>
<text x="32" y="156" fill="#8b949e" font-size="8" font-family="sans-serif">Kinetics</text>
<rect x="100" y="130" width="210" height="20" fill="#30363d" rx="4"/>
<rect x="100" y="130" width="172" height="20" fill="#f77f00" rx="4"/>
<text x="282" y="145" fill="#f0f6fc" font-size="13" font-family="sans-serif" font-weight="bold">𐑤</text>
<text x="32" y="174" fill="#06d6a0" font-size="14" font-family="sans-serif" font-weight="bold">G</text>
<text x="32" y="186" fill="#8b949e" font-size="8" font-family="sans-serif">Granularity</text>
<rect x="100" y="160" width="210" height="20" fill="#30363d" rx="4"/>
<rect x="100" y="160" width="142" height="20" fill="#06d6a0" rx="4"/>
<text x="252" y="175" fill="#f0f6fc" font-size="13" font-family="sans-serif" font-weight="bold">𐑲</text>
<text x="32" y="204" fill="#e94560" font-size="14" font-family="sans-serif" font-weight="bold">phi</text>
<text x="32" y="216" fill="#8b949e" font-size="8" font-family="sans-serif">Criticality</text>
<rect x="100" y="190" width="210" height="20" fill="#30363d" rx="4"/>
<rect x="100" y="190" width="210" height="20" fill="#e94560" rx="4"/>
<text x="320" y="205" fill="#f0f6fc" font-size="13" font-family="sans-serif" font-weight="bold">⊙</text>
<text x="32" y="234" fill="#9b59b6" font-size="14" font-family="sans-serif" font-weight="bold">H</text>
<text x="32" y="246" fill="#8b949e" font-size="8" font-family="sans-serif">Chirality</text>
<rect x="100" y="220" width="210" height="20" fill="#30363d" rx="4"/>
<rect x="100" y="220" width="193" height="20" fill="#9b59b6" rx="4"/>
<text x="303" y="235" fill="#f0f6fc" font-size="13" font-family="sans-serif" font-weight="bold">𐑫</text>
<text x="32" y="264" fill="#a2d6f9" font-size="14" font-family="sans-serif" font-weight="bold">S</text>
<text x="32" y="276" fill="#8b949e" font-size="8" font-family="sans-serif">Stoichiometry</text>
<rect x="100" y="250" width="210" height="20" fill="#30363d" rx="4"/>
<rect x="100" y="250" width="100" height="20" fill="#a2d6f9" rx="4"/>
<text x="210" y="265" fill="#f0f6fc" font-size="13" font-family="sans-serif" font-weight="bold">𐑕</text>
<text x="32" y="294" fill="#d4a017" font-size="14" font-family="sans-serif" font-weight="bold">O</text>
<text x="32" y="306" fill="#8b949e" font-size="8" font-family="sans-serif">Winding</text>
<rect x="100" y="280" width="210" height="20" fill="#30363d" rx="4"/>
<rect x="100" y="280" width="88" height="20" fill="#d4a017" rx="4"/>
<text x="198" y="295" fill="#f0f6fc" font-size="13" font-family="sans-serif" font-weight="bold">𐑴</text>
<text x="32" y="324" fill="#7d8c4e" font-size="14" font-family="sans-serif" font-weight="bold">q</text>
<text x="32" y="336" fill="#8b949e" font-size="8" font-family="sans-serif">Composition</text>
<rect x="100" y="310" width="210" height="20" fill="#30363d" rx="4"/>
<rect x="100" y="310" width="163" height="20" fill="#7d8c4e" rx="4"/>
<text x="273" y="325" fill="#f0f6fc" font-size="13" font-family="sans-serif" font-weight="bold">𐑠</text>
<text x="28" y="344" fill="#8b949e" font-size="9" font-family="sans-serif">Present on:</text>
<rect x="85" y="335" width="44" height="18" fill="#f77f00" rx="9"/>
<text x="107" y="348" fill="#0d1117" font-size="9" font-family="sans-serif" text-anchor="middle" font-weight="bold">Asia</text>
<rect x="137" y="335" width="58" height="18" fill="#06d6a0" rx="9"/>
<text x="166" y="348" fill="#0d1117" font-size="9" font-family="sans-serif" text-anchor="middle" font-weight="bold">Africa</text>
<rect x="203" y="335" width="72" height="18" fill="#9b59b6" rx="9"/>
<text x="239" y="348" fill="#0d1117" font-size="9" font-family="sans-serif" text-anchor="middle" font-weight="bold">Americas</text>
<text x="28" y="371" fill="#8b949e" font-size="9" font-family="sans-serif">Binary winding: MAOi + DMT activation. Eternal harmala chirality.</text>
</svg>