<svg xmlns="http://www.w3.org/2000/svg" viewBox="0 0 960 640" width="960" height="640">
<rect x="0" y="0" width="960" height="640" fill="#0d1117" rx="14"/>
<rect x="0" y="0" width="960" height="640" fill="#161b22" rx="14" stroke="#30363d" stroke-width="1"/>
<text x="40" y="45" fill="#f0f6fc" font-size="22" font-family="sans-serif" font-weight="bold">Structural Type Lattice</text>
<text x="40" y="70" fill="#8b949e" font-size="11" font-family="sans-serif">Types arranged by ouroboricity tier (vertical) and chirality (horizontal). Arrows indicate structural descent.</text>
<line x1="40" y1="88" x2="920" y2="88" stroke="#d4a017" stroke-width="0.5"/>

<!-- EDGES: structural descent -->
<g stroke="#30363d" stroke-width="1" stroke-dasharray="4,4">
<!-- From Type I (160,360) -->
<line x1="160" y1="360" x2="280" y2="260"/>
<line x1="160" y1="360" x2="280" y2="480"/>
<line x1="160" y1="360" x2="120" y2="480"/>
<line x1="160" y1="360" x2="320" y2="360"/>
<line x1="160" y1="360" x2="460" y2="360"/>
<!-- From Type IV (320,240) to Type VIII (460,140) -->
<line x1="320" y1="240" x2="460" y2="160"/>
<!-- From Type II (280,480) to Type IX (420,480) -->
<line x1="280" y1="480" x2="420" y2="480"/>
<!-- From Type IX (420,480) to Type V (160,580) -->
<line x1="420" y1="480" x2="200" y2="560"/>
<!-- From Type VI (320,360) to Type X (460,360) -->
<line x1="320" y1="360" x2="460" y2="360"/>
<!-- From Type IX (420,480) to Type VII (340,580) -->
<line x1="420" y1="480" x2="360" y2="560"/>
<!-- From Type VII (340,580) to Type XI (520,580) -->
<line x1="340" y1="580" x2="500" y2="560"/>
</g>

<!-- NODE: Type VIII Caffeine-Purine (O1) -->
<g>
<rect x="360" y="128" width="170" height="52" fill="#0d1117" rx="8" stroke="#f77f00" stroke-width="1.5"/>
<rect x="360" y="128" width="5" height="52" fill="#f77f00" rx="4"/>
<text x="380" y="148" fill="#d4a017" font-size="9" font-family="sans-serif" font-weight="bold">Type VIII</text>
<text x="380" y="164" fill="#f0f6fc" font-size="12" font-family="sans-serif" font-weight="bold">Caffeine-Purine</text>
<text x="380" y="176" fill="#f77f00" font-size="9" font-family="sans-serif">O</text>
<text x="394" y="173" fill="#f77f00" font-size="7" font-family="sans-serif">1</text>
<text x="406" y="176" fill="#8b949e" font-size="9" font-family="sans-serif">&#183; H=&#120818; &#183; &#981;=&#120834;</text>
</g>

<!-- NODE: Type IV Non-Critical Aromatic (O1) -->
<g>
<rect x="220" y="228" width="180" height="52" fill="#0d1117" rx="8" stroke="#f77f00" stroke-width="1.5"/>
<rect x="220" y="228" width="5" height="52" fill="#f77f00" rx="4"/>
<text x="240" y="248" fill="#d4a017" font-size="9" font-family="sans-serif" font-weight="bold">Type IV</text>
<text x="240" y="264" fill="#f0f6fc" font-size="12" font-family="sans-serif" font-weight="bold">Non-Critical Aromatic</text>
<text x="240" y="276" fill="#f77f00" font-size="9" font-family="sans-serif">O</text>
<text x="254" y="273" fill="#f77f00" font-size="7" font-family="sans-serif">1</text>
<text x="266" y="276" fill="#8b949e" font-size="9" font-family="sans-serif">&#183; H=&#120822; &#183; &#981;=&#120834;</text>
</g>

<!-- Tier label O1 -->
<text x="800" y="154" fill="#8b949e" font-size="14" font-family="sans-serif" font-weight="bold">O</text>
<text x="816" y="150" fill="#8b949e" font-size="10" font-family="sans-serif" font-weight="bold">1</text>
<line x1="740" y1="150" x2="790" y2="150" stroke="#30363d" stroke-width="0.5"/>

<!-- NODE: Type I Aromatic Baseline (O2) -->
<g>
<rect x="60" y="348" width="175" height="52" fill="#0d1117" rx="8" stroke="#e94560" stroke-width="1.5"/>
<rect x="60" y="348" width="5" height="52" fill="#e94560" rx="4"/>
<text x="80" y="368" fill="#d4a017" font-size="9" font-family="sans-serif" font-weight="bold">Type I</text>
<text x="80" y="384" fill="#f0f6fc" font-size="12" font-family="sans-serif" font-weight="bold">Aromatic Baseline</text>
<text x="80" y="396" fill="#e94560" font-size="9" font-family="sans-serif">O</text>
<text x="94" y="393" fill="#e94560" font-size="7" font-family="sans-serif">2</text>
<text x="106" y="396" fill="#8b949e" font-size="9" font-family="sans-serif">&#183; H=&#120822; &#183; &#981;=&#8857;</text>
</g>

<!-- NODE: Type VI Adaptogen (O2) -->
<g>
<rect x="240" y="348" width="155" height="52" fill="#0d1117" rx="8" stroke="#e94560" stroke-width="1.5"/>
<rect x="240" y="348" width="5" height="52" fill="#e94560" rx="4"/>
<text x="260" y="368" fill="#d4a017" font-size="9" font-family="sans-serif" font-weight="bold">Type VI</text>
<text x="260" y="384" fill="#f0f6fc" font-size="12" font-family="sans-serif" font-weight="bold">Adaptogen</text>
<text x="260" y="396" fill="#e94560" font-size="9" font-family="sans-serif">O</text>
<text x="274" y="393" fill="#e94560" font-size="7" font-family="sans-serif">2</text>
<text x="286" y="396" fill="#8b949e" font-size="9" font-family="sans-serif">&#183; H=&#120822; &#183; C=&#120807;</text>
</g>

<!-- NODE: Type X Triterpene Saponin (O2) -->
<g>
<rect x="410" y="348" width="165" height="52" fill="#0d1117" rx="8" stroke="#e94560" stroke-width="1.5"/>
<rect x="410" y="348" width="5" height="52" fill="#e94560" rx="4"/>
<text x="430" y="368" fill="#d4a017" font-size="9" font-family="sans-serif" font-weight="bold">Type X</text>
<text x="430" y="384" fill="#f0f6fc" font-size="12" font-family="sans-serif" font-weight="bold">Triterpene Saponin</text>
<text x="430" y="396" fill="#e94560" font-size="9" font-family="sans-serif">O</text>
<text x="444" y="393" fill="#e94560" font-size="7" font-family="sans-serif">2</text>
<text x="456" y="396" fill="#8b949e" font-size="9" font-family="sans-serif">&#183; H=&#120822; &#183; C=&#120807;</text>
</g>

<!-- NODE: Type III Cardiac Glycoside (O2) -->
<g>
<rect x="30" y="468" width="165" height="52" fill="#0d1117" rx="8" stroke="#e94560" stroke-width="1.5"/>
<rect x="30" y="468" width="5" height="52" fill="#e94560" rx="4"/>
<text x="50" y="488" fill="#d4a017" font-size="9" font-family="sans-serif" font-weight="bold">Type III</text>
<text x="50" y="504" fill="#f0f6fc" font-size="12" font-family="sans-serif" font-weight="bold">Cardiac Glycoside</text>
<text x="50" y="516" fill="#e94560" font-size="9" font-family="sans-serif">O</text>
<text x="64" y="513" fill="#e94560" font-size="7" font-family="sans-serif">2</text>
<text x="76" y="516" fill="#8b949e" font-size="9" font-family="sans-serif">&#183; H=&#120822; &#183; S=&#120821;</text>
</g>

<!-- NODE: Type II Tropane (O2) -->
<g>
<rect x="210" y="468" width="140" height="52" fill="#0d1117" rx="8" stroke="#e94560" stroke-width="1.5"/>
<rect x="210" y="468" width="5" height="52" fill="#e94560" rx="4"/>
<text x="230" y="488" fill="#d4a017" font-size="9" font-family="sans-serif" font-weight="bold">Type II</text>
<text x="230" y="504" fill="#f0f6fc" font-size="12" font-family="sans-serif" font-weight="bold">Tropane</text>
<text x="230" y="516" fill="#e94560" font-size="9" font-family="sans-serif">O</text>
<text x="244" y="513" fill="#e94560" font-size="7" font-family="sans-serif">2</text>
<text x="256" y="516" fill="#8b949e" font-size="9" font-family="sans-serif">&#183; H=&#120822; &#183; G=&#120818;</text>
</g>

<!-- NODE: Type IX Opioid Alkaloid (O2) -->
<g>
<rect x="370" y="468" width="155" height="52" fill="#0d1117" rx="8" stroke="#e94560" stroke-width="1.5"/>
<rect x="370" y="468" width="5" height="52" fill="#e94560" rx="4"/>
<text x="390" y="488" fill="#d4a017" font-size="9" font-family="sans-serif" font-weight="bold">Type IX</text>
<text x="390" y="504" fill="#f0f6fc" font-size="12" font-family="sans-serif" font-weight="bold">Opioid Alkaloid</text>
<text x="390" y="516" fill="#e94560" font-size="9" font-family="sans-serif">O</text>
<text x="404" y="513" fill="#e94560" font-size="7" font-family="sans-serif">2</text>
<text x="416" y="516" fill="#8b949e" font-size="9" font-family="sans-serif">&#183; H=&#120811; &#183; G=&#120818;</text>
</g>

<!-- Tier label O2 -->
<text x="800" y="394" fill="#8b949e" font-size="14" font-family="sans-serif" font-weight="bold">O</text>
<text x="816" y="390" fill="#8b949e" font-size="10" font-family="sans-serif" font-weight="bold">2</text>
<line x1="740" y1="390" x2="790" y2="390" stroke="#30363d" stroke-width="0.5"/>

<!-- NODE: Type V Axiom A / Eternal (O2d) -->
<g>
<rect x="100" y="568" width="170" height="52" fill="#0d1117" rx="8" stroke="#9b59b6" stroke-width="1.5"/>
<rect x="100" y="568" width="5" height="52" fill="#9b59b6" rx="4"/>
<text x="120" y="588" fill="#d4a017" font-size="9" font-family="sans-serif" font-weight="bold">Type V</text>
<text x="120" y="604" fill="#f0f6fc" font-size="12" font-family="sans-serif" font-weight="bold">Axiom A / Eternal</text>
<text x="120" y="616" fill="#9b59b6" font-size="9" font-family="sans-serif">O</text>
<text x="134" y="613" fill="#9b59b6" font-size="7" font-family="sans-serif">2</text>
<text x="142" y="616" fill="#9b59b6" font-size="11" font-family="sans-serif" font-weight="bold">&#8224;</text>
<text x="158" y="616" fill="#8b949e" font-size="9" font-family="sans-serif">&#183; H=&#120811; &#183; S=&#120809;</text>
</g>

<!-- NODE: Type VII Beta-Carboline (O2d) -->
<g>
<rect x="290" y="568" width="155" height="52" fill="#0d1117" rx="8" stroke="#9b59b6" stroke-width="1.5"/>
<rect x="290" y="568" width="5" height="52" fill="#9b59b6" rx="4"/>
<text x="310" y="588" fill="#d4a017" font-size="9" font-family="sans-serif" font-weight="bold">Type VII</text>
<text x="310" y="604" fill="#f0f6fc" font-size="12" font-family="sans-serif" font-weight="bold">Beta-Carboline</text>
<text x="310" y="616" fill="#9b59b6" font-size="9" font-family="sans-serif">O</text>
<text x="324" y="613" fill="#9b59b6" font-size="7" font-family="sans-serif">2</text>
<text x="332" y="616" fill="#9b59b6" font-size="11" font-family="sans-serif" font-weight="bold">&#8224;</text>
<text x="348" y="616" fill="#8b949e" font-size="9" font-family="sans-serif">&#183; &#937;=&#120820; &#183; H=&#120811;</text>
</g>

<!-- NODE: Type XI Fungal Interface (O2d) -->
<g>
<rect x="470" y="568" width="155" height="52" fill="#0d1117" rx="8" stroke="#9b59b6" stroke-width="1.5"/>
<rect x="470" y="568" width="5" height="52" fill="#9b59b6" rx="4"/>
<text x="490" y="588" fill="#d4a017" font-size="9" font-family="sans-serif" font-weight="bold">Type XI</text>
<text x="490" y="604" fill="#f0f6fc" font-size="12" font-family="sans-serif" font-weight="bold">Fungal Interface</text>
<text x="490" y="616" fill="#9b59b6" font-size="9" font-family="sans-serif">O</text>
<text x="504" y="613" fill="#9b59b6" font-size="7" font-family="sans-serif">2</text>
<text x="512" y="616" fill="#9b59b6" font-size="11" font-family="sans-serif" font-weight="bold">&#8224;</text>
<text x="528" y="616" fill="#8b949e" font-size="9" font-family="sans-serif">&#183; &#937;=&#120820; &#183; &#425;=&#120821;</text>
</g>

<!-- Tier label O2d -->
<text x="800" y="614" fill="#8b949e" font-size="14" font-family="sans-serif" font-weight="bold">O</text>
<text x="816" y="610" fill="#8b949e" font-size="10" font-family="sans-serif" font-weight="bold">2</text>
<text x="826" y="614" fill="#9b59b6" font-size="14" font-family="sans-serif" font-weight="bold">&#8224;</text>
<line x1="740" y1="610" x2="790" y2="610" stroke="#30363d" stroke-width="0.5"/>

<!-- Legend -->
<line x1="40" y1="640" x2="920" y2="640" stroke="#30363d" stroke-width="0.5"/>
<text x="40" y="662" fill="#8b949e" font-size="10" font-family="sans-serif">Ars Phytoglyphica &#8212; Structural Type Lattice. Author: Lando&#x2297;&#x2299;perator. Dashed lines = structural descent (promotion path from ancestor type).</text>
</svg>
